#!OML:ASF F:\VICON\USERDATA\INSTALL\rory3\rory3.ASF
:FULLY-SPECIFIED
:DEGREES
1993
root 9.32059 15.0511 0.0573926 -0.250582 -58.4291 -353.59
lowerback 45.7869 3.25654 -0.812871
upperback 7.39398 3.23798 2.62228
thorax -13.0873 1.11164 1.82735
lowerneck -12.8213 -6.92231 -5.33767
upperneck 10.4366 -8.8188 3.58838
head 5.63996 -4.25179 1.20572
rclavicle -4.21423e-014 3.57812e-014
rhumerus -2.11131 -15.0856 -77.7875
rradius 40.6933
rwrist 1.36758
rhand -20.1437 8.37027
rfingers 7.12502
rthumb 6.20112 -21.519
lclavicle -4.21423e-014 3.57812e-014
lhumerus -10.3524 -19.0604 91.0371
lradius 75.3004
lwrist 12.3523
lhand 160.366 -487.021
lfingers 7.12502
lthumb -173.307 1702.85
rfemur -29.7403 2.35914 10.4821
rtibia 94.0819
rfoot -17.0079 -10.9613
rtoes -3.78654
lfemur -53.9593 -1.91976 -0.07653
ltibia 54.4266
lfoot -8.80016 -15.9883
ltoes -41.5029
1994
root 9.36091 14.9822 -0.0137724 -0.594237 -58.7812 -353.517
lowerback 45.5026 3.03658 -1.34078
upperback 7.37565 2.72414 2.58176
thorax -13.0274 0.907607 2.30269
lowerneck -12.6264 -6.43408 -5.72218
upperneck 10.4867 -8.12691 3.76904
head 5.61689 -3.92096 1.39359
rclavicle 8.42847e-014 -1.11319e-014
rhumerus -3.02448 -14.3746 -78.0819
rradius 41.1416
rwrist 6.64609
rhand -20.2652 9.83259
rfingers 7.12502
rthumb 6.08382 -20.0601
lclavicle 8.42847e-014 -1.11319e-014
lhumerus -9.56092 -18.4054 91.4505
lradius 74.8635
lwrist 12.7653
lhand 162.042 -486.668
lfingers 7.12502
lthumb -171.689 1703.15
rfemur -29.8184 1.98174 10.4288
rtibia 94.5263
rfoot -16.7356 -10.4989
rtoes -10.7651
lfemur -54.0681 -1.24651 0.02246
ltibia 54.9851
lfoot -8.73927 -16.2127
ltoes -42.4195
1995
root 9.39659 14.9203 -0.0567432 -1.08661 -59.3058 -353.458
lowerback 45.3158 2.92618 -1.33394
upperback 7.40929 2.54393 2.3028
thorax -12.9079 0.82825 2.08126
lowerneck -12.5588 -6.29282 -5.28597
upperneck 10.5859 -8.00295 3.63047
head 5.6072 -3.85367 1.29508
rclavicle 1.98785e-014 1.27222e-014
rhumerus -4.55291 -13.8943 -78.0154
rradius 42.3548
rwrist 10.7936
rhand -20.5278 10.7088
rfingers 7.12502
rthumb 5.83027 -19.191
lclavicle 1.98785e-014 1.27222e-014
lhumerus -8.5277 -18.6692 91.8206
lradius 74.2786
lwrist 13.4549
lhand 163.074 -486.439
lfingers 7.12502
lthumb -170.694 1703.34
rfemur -29.658 1.61535 10.0657
rtibia 94.8037
rfoot -16.831 -9.48525
rtoes -8.7246
lfemur -53.9453 -0.831938 0.104608
ltibia 55.5849
lfoot -9.39582 -15.6531
ltoes -44.6573
1996
root 9.43537 14.858 -0.105339 -1.7081 -59.9433 -353.393
lowerback 45.3273 3.02787 -1.39407
upperback 7.45751 2.59509 2.1201
thorax -12.8468 0.846959 1.88868
lowerneck -12.6377 -6.2587 -4.77999
upperneck 10.7101 -8.041 3.57688
head 5.63796 -3.85366 1.19191
rclavicle 5.725e-014 -5.96354e-014
rhumerus -6.1325 -13.0062 -77.9532
rradius 44.072
rwrist 12.6644
rhand -21.6379 10.0616
rfingers 7.12502
rthumb 4.75844 -19.8649
lclavicle 5.725e-014 -5.96354e-014
lhumerus -7.26394 -19.3398 92.0397
lradius 73.5984
lwrist 14.8097
lhand 163.147 -486.539
lfingers 7.12502
lthumb -170.623 1703.23
rfemur -29.4897 1.27804 9.674
rtibia 95.0316
rfoot -17.2127 -8.42667
rtoes -8.53906
lfemur -53.6188 -0.569318 0.326958
ltibia 56.0964
lfoot -10.1711 -14.8646
ltoes -46.8478
1997
root 9.47505 14.7964 -0.15217 -2.06449 -60.6695 -353.58
lowerback 45.2496 2.95812 -1.54181
upperback 7.52182 2.43535 2.17737
thorax -12.7516 0.774013 2.10567
lowerneck -12.7162 -6.06926 -5.28831
upperneck 10.8823 -7.73507 3.86771
head 5.72477 -3.7031 1.38654
rclavicle 3.10104e-014 -2.3059e-014
rhumerus -7.26608 -11.9521 -77.9228
rradius 45.2727
rwrist 14.3237
rhand -22.0195 11.382
rfingers 7.12502
rthumb 4.38993 -18.5525
lclavicle 3.10104e-014 -2.3059e-014
lhumerus -6.10314 -19.0305 92.3561
lradius 72.9644
lwrist 15.2464
lhand 163.692 -486.487
lfingers 7.12502
lthumb -170.097 1703.26
rfemur -29.4208 0.802004 9.35504
rtibia 95.1772
rfoot -17.5643 -7.23787
rtoes -11.8819
lfemur -53.2877 -0.409305 0.847801
ltibia 56.6011
lfoot -9.80022 -14.8195
ltoes -45.626
1998
root 9.52373 14.7323 -0.228163 -3.04061 -61.2116 -352.815
lowerback 44.6339 2.23674 -1.32161
upperback 7.74231 1.51439 1.28452
thorax -12.2333 0.365595 1.45295
lowerneck -12.9336 -5.59682 -4.9706
upperneck 11.061 -7.18812 4.13069
head 5.79077 -3.40159 1.46374
rclavicle -2.38542e-015 2.94201e-014
rhumerus -8.15569 -10.9996 -79.1894
rradius 46.5814
rwrist 15.0846
rhand -22.0829 11.9363
rfingers 7.12502
rthumb 4.32869 -17.9995
lclavicle -2.38542e-015 2.94201e-014
lhumerus -4.67339 -18.5492 91.2135
lradius 72.3462
lwrist 15.0955
lhand 165.144 -485.841
lfingers 7.12502
lthumb -168.696 1703.83
rfemur -29.7267 -0.0626301 8.60676
rtibia 95.4827
rfoot -17.9141 -5.98937
rtoes -13.6227
lfemur -53.1824 -0.113205 0.86112
ltibia 56.9887
lfoot -9.0014 -15.5303
ltoes -43.3603
1999
root 9.55536 14.6917 -0.252362 -5.04804 -62.1947 -351.719
lowerback 44.8948 2.18022 -1.65485
upperback 7.82914 1.23473 1.13904
thorax -12.1973 0.238137 1.59576
lowerneck -12.8625 -5.36531 -5.38779
upperneck 11.348 -6.803 4.06467
head 5.86389 -3.23757 1.54494
rclavicle 3.97569e-016 -3.73715e-014
rhumerus -9.71957 -9.36514 -78.7733
rradius 48.2828
rwrist 14.3146
rhand -21.9523 12.6125
rfingers 7.12502
rthumb 4.45482 -17.3206
lclavicle 3.97569e-016 -3.73715e-014
lhumerus -3.62401 -18.0035 91.429
lradius 71.3941
lwrist 14.8358
lhand 166.074 -485.816
lfingers 7.12502
lthumb -167.8 1703.81
rfemur -29.1031 -0.570531 7.33287
rtibia 95.5466
rfoot -18.2506 -4.36049
rtoes -14.0977
lfemur -52.0176 -0.464438 0.696215
ltibia 57.3693
lfoot -9.02784 -15.0535
ltoes -43.0145
2000
root 9.60554 14.6244 -0.322295 -5.42138 -63.0828 -351.782
lowerback 45.0288 2.60974 -2.41027
upperback 7.57966 1.51868 1.81062
thorax -12.5785 0.383283 2.58747
lowerneck -13.0329 -5.27078 -5.667
upperneck 11.9302 -6.53609 3.38958
head 6.05017 -3.16903 1.39247
rclavicle 3.49861e-014 1.59028e-014
rhumerus -11.4537 -8.09405 -77.6464
rradius 49.8397
rwrist 13.5699
rhand -22.1846 13.3554
rfingers 7.12502
rthumb 4.23047 -16.5823
lclavicle 3.49861e-014 1.59028e-014
lhumerus -2.96964 -17.4468 92.4766
lradius 70.6352
lwrist 14.8389
lhand 166.242 -485.645
lfingers 7.12502
lthumb -167.637 1703.97
rfemur -29.4756 -0.984297 7.15515
rtibia 95.9838
rfoot -18.6085 -3.24192
rtoes -14.8563
lfemur -51.6726 -0.00571594 1.22022
ltibia 57.6558
lfoot -8.6181 -15.3081
ltoes -42.331
2001
root 9.64908 14.5681 -0.393254 -6.71669 -64.1294 -350.895
lowerback 45.1007 3.21319 -3.64133
upperback 7.38559 1.78015 2.41227
thorax -12.8976 0.536207 3.7613
lowerneck -13.2623 -5.09433 -5.71709
upperneck 12.5632 -6.14661 2.40588
head 6.24261 -3.06026 1.1154
rclavicle 4.13472e-014 4.29375e-014
rhumerus -13.1087 -6.78603 -76.5514
rradius 51.3312
rwrist 12.6931
rhand -21.841 13.657
rfingers 7.12502
rthumb 4.56228 -16.2739
lclavicle 4.13472e-014 4.29375e-014
lhumerus -2.48627 -16.5994 93.4372
lradius 70.0838
lwrist 14.9713
lhand 166.602 -485.449
lfingers 7.12502
lthumb -167.29 1704.14
rfemur -29.8843 -1.53346 6.39896
rtibia 96.5249
rfoot -18.9108 -1.84519
rtoes -15.183
lfemur -50.9817 0.350169 1.3861
ltibia 57.8072
lfoot -8.64244 -14.8234
ltoes -42.5117
